{"title":"Triage (PSP + Ipod touch + Zune)","uid":5659805,"size":397334867,"categoryP":"video","categoryS":"handheld","magnet":"?xt=urn:btih:4404ce215ddec7584f5b98e2dbfcdf694fb375aa&amp;dn=Triage+%28PSP+%2B+Ipod+touch+%2B+Zune%29&amp;tr=udp%3A%2F%2Ftracker.openbittorrent.com%3A80&amp;tr=udp%3A%2F%2Fopen.demonii.com%3A1337&amp;tr=udp%3A%2F%2Ftracker.coppersurfer.tk%3A6969&amp;tr=udp%3A%2F%2Fexodus.desync.com%3A6969","seeders":0,"leechers":1,"uploader":"on.off.on","files":-1,"time":1277931762,"description":"Triage &lt;a href=&quot;\nhttp://www.imdb.com/title/tt1217070/&quot; rel=&quot;nofollow&quot; target=&quot;_NEW&quot;&gt;\nhttp://www.imdb.com/title/tt1217070/&lt;/a&gt;\n\n\nSource  :\n\nTriage 2009 720p BluRay X264 QCF\n\nNo subs sorry!\n\n\nInfo :\n\nID                               : 1\nFormat                           : AVC\nFormat/Info                      : Advanced Video Codec\nFormat profile                   : &lt;a class=&quot;__cf_email__&quot; href=&quot;/cdn-cgi/l/email-protection&quot; data-cfemail=&quot;a3e1c2d0c6cfcacdc6e3ef918d92&quot;&gt;[email&amp;#160;protected]&lt;/a&gt;&lt;script cf-hash='f9e31' type=&quot;text/javascript&quot;&gt;\n/* &lt;![CDATA[ */!function(){try{var t=&quot;currentScript&quot;in document?document.currentScript:function(){for(var t=document.getElementsByTagName(&quot;script&quot;),e=t.length;e--;)if(t[e].getAttribute(&quot;cf-hash&quot;))return t[e]}();if(t&amp;&amp;t.previousSibling){var e,r,n,i,c=t.previousSibling,a=c.getAttribute(&quot;data-cfemail&quot;);if(a){for(e=&quot;&quot;,r=parseInt(a.substr(0,2),16),n=2;a.length-n;n+=2)i=parseInt(a.substr(n,2),16)^r,e+=String.fromCharCode(i);e=document.createTextNode(e),c.parentNode.replaceChild(e,c)}}}catch(u){}}();/* ]]&gt; */&lt;/script&gt;\nFormat settings, CABAC           : No\nFormat settings, ReFrames        : 3 frames\nCodec ID                         : avc1\nCodec ID/Info                    : Advanced Video Coding\nDuration                         : 1h 39mn\nBit rate mode                    : Variable\nBit rate                         : 400 Kbps\nWidth                            : 480 pixels\nHeight                           : 272 pixels\nDisplay aspect ratio             : 16:9\nFrame rate mode                  : Variable\nFrame rate                       : 23.976 fps\nMinimum frame rate               : 23.810 fps\nMaximum frame rate               : 24.390 fps\nColor space                      : YUV\nChroma subsampling               : 4:2:0\nBit depth                        : 8 bits\nScan type                        : Progressive\nBits/(Pixel*Frame)               : 0.128\nStream size                      : 285 MiB (75%)\nWriting library                  : x264 core 79\n\nID                               : 2\nFormat                           : AAC\nFormat/Info                      : Advanced Audio Codec\nFormat version                   : Version 4\nFormat profile                   : LC\nFormat settings, SBR             : No\nCodec ID                         : 40\nDuration                         : 1h 39mn\nBit rate mode                    : Variable\nBit rate                         : 128 Kbps\nMaximum bit rate                 : 150 Kbps\nChannel(s)                       : 2 channels\nChannel positions                : Front: L R\nSampling rate                    : 48.0 KHz\nStream size                      : 91.2 MiB (24%)\n\nScreens : &lt;a href=&quot;\nhttp://img340.imageshack.us/img340/9082/vlcsnap00001t.png&quot; rel=&quot;nofollow&quot; target=&quot;_NEW&quot;&gt;\nhttp://img340.imageshack.us/img340/9082/vlcsnap00001t.png&lt;/a&gt; &lt;a href=&quot;\nhttp://img687.imageshack.us/img687/6483/vlcsnap00002di.png&quot; rel=&quot;nofollow&quot; target=&quot;_NEW&quot;&gt;\nhttp://img687.imageshack.us/img687/6483/vlcsnap00002di.png&lt;/a&gt; &lt;a href=&quot;\nhttp://img705.imageshack.us/img705/3010/vlcsnap00003he.png&quot; rel=&quot;nofollow&quot; target=&quot;_NEW&quot;&gt;\nhttp://img705.imageshack.us/img705/3010/vlcsnap00003he.png&lt;/a&gt; &lt;a href=&quot;\nhttp://img408.imageshack.us/img408/2104/vlcsnap00004v.png&quot; rel=&quot;nofollow&quot; target=&quot;_NEW&quot;&gt;\nhttp://img408.imageshack.us/img408/2104/vlcsnap00004v.png&lt;/a&gt; &lt;a href=&quot;\nhttp://img12.imageshack.us/img12/7964/vlcsnap00005y.png&quot; rel=&quot;nofollow&quot; target=&quot;_NEW&quot;&gt;\nhttp://img12.imageshack.us/img12/7964/vlcsnap00005y.png&lt;/a&gt; &lt;a href=&quot;\nhttp://img62.imageshack.us/img62/4520/vlcsnap00006h.png&quot; rel=&quot;nofollow&quot; target=&quot;_NEW&quot;&gt;\nhttp://img62.imageshack.us/img62/4520/vlcsnap00006h.png&lt;/a&gt; &lt;a href=&quot;\nhttp://img194.imageshack.us/img194/7919/vlcsnap00007f.png&quot; rel=&quot;nofollow&quot; target=&quot;_NEW&quot;&gt;\nhttp://img194.imageshack.us/img194/7919/vlcsnap00007f.png&lt;/a&gt;\n\nPLEASE LET THE TORRENT SEED AND SHARE IT WITH ALL YOU KNOW!\n\nLet me know what I can do to be your trusted source of Handheld videos. &lt;a href=&quot;\nhttp://thepiratebay.se/user/on.off.on/&quot; rel=&quot;nofollow&quot; target=&quot;_NEW&quot;&gt;\nhttp://thepiratebay.se/user/on.off.on/&lt;/a&gt; -OOO","torrent":{"xt":"urn:btih:4404ce215ddec7584f5b98e2dbfcdf694fb375aa","amp;dn":"Triage+%28PSP+%2B+Ipod+touch+%2B+Zune%29","amp;tr":["udp%3A%2F%2Ftracker.openbittorrent.com%3A80","udp%3A%2F%2Fopen.demonii.com%3A1337","udp%3A%2F%2Ftracker.coppersurfer.tk%3A6969","udp%3A%2F%2Fexodus.desync.com%3A6969"],"infoHash":"4404ce215ddec7584f5b98e2dbfcdf694fb375aa","infoHashBuffer":{"type":"Buffer","data":[68,4,206,33,93,222,199,88,79,91,152,226,219,252,223,105,79,179,117,170]},"announce":[],"urlList":[]}}